<svg id="Layer_1" data-name="Layer 1" xmlns="http://www.w3.org/2000/svg" width="256" height="256" viewBox="0 0 256 256"><path d="M58.1,166.7a32.5,32.5,0,0,0-7.7.8h0v.2c0,.3.3.6.8.9a12,12,0,0,0,2,1.1l2.6,1,2.8.8,2.4.6,1.5.2h2.1l2.6-.4a9.2,9.2,0,0,0,2.3-.9,3.4,3.4,0,0,0,1.7-1.4,24.3,24.3,0,0,0-6.4-2.2A29.9,29.9,0,0,0,58.1,166.7Z"/><path d="M127,.7a127,127,0,1,0,127,127A127,127,0,0,0,127,.7Zm82.8,70v.4a7.8,7.8,0,0,1-.1,1.3l-.3,2.2a11.8,11.8,0,0,1-.4,2,11.3,11.3,0,0,1-.2,1.4,10.1,10.1,0,0,0-.9,1.8l-.6,2-.6,2-.7,1.9-1.7,3.1a21.1,21.1,0,0,0-1.6,3l-19.9,27.7-.3.6c-.1.1-.1.2-.2.2l-.4.3-.4.5-1.6,2.3-2.1,2.8c-.7,1.1-1.4,2.2-2.2,3.3s-1.4,2.2-1.9,3.2a19.4,19.4,0,0,0-1.4,3,6,6,0,0,0-.6,2.3c0,.3-.2.6-.2.8a1.4,1.4,0,0,1,.2.7h0c-.1,0-.2.1-.2.3a.6.6,0,0,0,.2.5v10.1a4.4,4.4,0,0,1-.2,1c-.2.4-.2.8-.4,1.2s-.5.8-.6,1.2-.4.8-.4,1.1v1.7a.4.4,0,0,1-.1.4,5.9,5.9,0,0,1-.4.8c-.1.3-.5.5-.7.8a1.4,1.4,0,0,1-.5.4v.4c0,.1.7.2.8.4s.9.3.9.4v2.9c0,1.1-.5,2.3-.6,3.5s-.6,2.3-.8,3.5-.5,2.3-.7,3.5a19.8,19.8,0,0,0-.3,3.5q0,3.2.3,6.3a41,41,0,0,0,1.1,6.1,31,31,0,0,0,2.1,5.8,24.5,24.5,0,0,0,3.4,5.2,3.2,3.2,0,0,1-1.3.8l-1.6.7-1.7.5h-2l-1-.2-1.2-.3-1-.2h-.7l-.7-.3a1.8,1.8,0,0,1-.7-.5l-.3-.7a27.7,27.7,0,0,0,.1-4.1,29.7,29.7,0,0,0-.3-4.2c-.1-1.4-.3-2.9-.5-4.3s-.3-2.8-.5-4.1-.1-.3-.2-.6a3.9,3.9,0,0,1-.2-.6c0-1.1.1-2.3.1-3.6s0-2.7-.1-4.1a26.3,26.3,0,0,0-.6-3.9,16,16,0,0,0-1.4-3.5,3.2,3.2,0,0,0-1.5,1.9,17.3,17.3,0,0,0-.8,2.7c-.2.9-.2,1.9-.4,2.9a11.8,11.8,0,0,0-.9,2.3v3.8a16.1,16.1,0,0,0,0,2.2v1.5c0,2.9-.3,5.6-.1,8.3s.2,5.4.5,8.2l.4.4.8.5.8.7c.3.3.4.5.4.7s-.3.5-.8.8l-1.9.8a17.6,17.6,0,0,1-2,.9l-1.3.4h-.2l-4.7-2.6a.4.4,0,0,1-.2-.5v-.6a29.9,29.9,0,0,1,0-3,28.1,28.1,0,0,0,.1-3,23.4,23.4,0,0,0-.3-3.8l-.6-3.7-.6-3.7c-.1-1.3-.2-2.6-.2-3.9s0-2.4.1-3.4l.3-2.8.6-2.8c.2-.9.4-2,.6-3.1a1.1,1.1,0,0,0,0-.8,2,2,0,0,1-.1-.7l-1.9.2-1.9.6-1.9.6-1.9.5-1.4.2h-2l-1.1-.2h-7a46.1,46.1,0,0,0-5.3-.2H120a5.4,5.4,0,0,0-2.4.9,45.1,45.1,0,0,1,0,5.2c0,1.7-.1,3.4-.1,5.1l-.3,5.1c0,1.7-.1,3.4-.1,5.2v1a7.5,7.5,0,0,0,0,1.5v2.6c0,.5.6,1.1,1.1,1.6s.9,1.2,1.4,1.7l1.2,1.8a4.1,4.1,0,0,1,.5,1.8v.4a11.2,11.2,0,0,1-4.1.4c.1.4,0,.7-.2.7h-2.7a8.6,8.6,0,0,1-2.3-.2,3.7,3.7,0,0,1-1.8-.8,2.4,2.4,0,0,1-.8-1.9,6.9,6.9,0,0,1,.2-1.3l.3-1.3.3-1.3a6.1,6.1,0,0,0,.1-1.4,23.6,23.6,0,0,0-.2-3.8c-.2-1.2-.4-2.4-.7-3.6s-.5-2.6-.8-3.8a29.6,29.6,0,0,1-.7-4h-.5c-.2,0-.3.8-.5.9a2.5,2.5,0,0,1-.4.7l-.3.6-1.5,2.2a15,15,0,0,0-1.5,2.3,25.6,25.6,0,0,0-1.1,2.4,8.4,8.4,0,0,0-.4,2.7,4.1,4.1,0,0,0,.3,1.6l.7,1.5.8,1.2a1.5,1.5,0,0,1,.3.6.8.8,0,0,1-.4.7l-1,.5-1.3.2H96.7a1.5,1.5,0,0,1-1-.4,1.8,1.8,0,0,1-.7-.8,10.7,10.7,0,0,1-.6-1.7,14.2,14.2,0,0,0-.5-1.6,4.1,4.1,0,0,1-.3-1.6,4.2,4.2,0,0,1,.4-1.5,14,14,0,0,1,1-1.6l1-1.6a8,8,0,0,0,.9-1.4l2.4-5.9c.8-2,1.6-3.9,2.5-5.9l.4-.8.6-.7.4-.7a2.9,2.9,0,0,0,.2-.9.5.5,0,0,0-.4-.6h-1.2l-9,2.5a3.2,3.2,0,0,1-1.3.5l-1.8.4a4.4,4.4,0,0,0-1.6.6,1.1,1.1,0,0,0-.7,1,1.2,1.2,0,0,0,.3.9,2.3,2.3,0,0,0,.7.7l.8.5.7.6-.4.5-1.2-.9-1.5-.8a3.4,3.4,0,0,0-1.5-.6,3.9,3.9,0,0,0-1.5-.2,12.8,12.8,0,0,0-3.8.5l-3.9,1.1L72,180a15.1,15.1,0,0,1-4.2.5,18.5,18.5,0,0,1-3.5-.4,37,37,0,0,1-4.9-1.1c-1.7-.5-3.5-1-5.4-1.7a46.7,46.7,0,0,1-5-2.3,13,13,0,0,1-3.6-2.7,4,4,0,0,1-1.5-2.9,4.9,4.9,0,0,1,1.1-3.3,7.1,7.1,0,0,1,2.8-1.6c1.1-.4,2.2-.1,3.5-.2s2.3.4,3.3.4h4a2.4,2.4,0,0,1,1.3-.3,21.5,21.5,0,0,1,2.3.2l2.6.3,1.9.2a7.6,7.6,0,0,1,2,.6l1.7.8,1.9.8a6.4,6.4,0,0,0,2,.3,9.1,9.1,0,0,0,4-1c1.3-.8,2.7-1.6,4.1-2.6l3.9-3.1,3.2-2.7,1.9-1.3,1.8-1.1,1.8-1.2,1.5-1.7c.9-1.5,1.8-2.9,2.6-4.5a25.6,25.6,0,0,1,2.7-4.5l1.3-1.3,1.5-1,1.6-.8,1.7-1a40.6,40.6,0,0,0,3.6-2.6l3.4-2.9,3.4-3c1.1-1,2.2-2,3.4-2.9a28.8,28.8,0,0,1,3.8-2.2l3.9-1.8,2.5-1.3,2.5-1.3,2.5-1.2,2.7-.7,22.4-3.3a9.5,9.5,0,0,0,3.5-1.1,17.2,17.2,0,0,0,3.3-2.2,21.5,21.5,0,0,0,3.2-2.9c1-1,2-2.1,2.9-3.2l2.7-3.2,2.3-2.8,7.7-9,.4-.3.5-.5.5-.5c.2-.2.2-.3.3-.3l2-3.3h.3l.3-.3.4-.2.2-.2.5-.4.3-.4,1.3-1.7,1.3-2,1.4-1.9c.3-.7.7-1.2.9-1.7a18.9,18.9,0,0,0,.9-2.1,17.2,17.2,0,0,1,.7-2.1c.2-.7.5-1.4.7-2.2s1-1.4,1-2.2V63.7a4.5,4.5,0,0,0-1.1-3,11,11,0,0,0-2.6-2.7,17.4,17.4,0,0,0-3.3-1.8,10.4,10.4,0,0,0-3.2-.6,28.1,28.1,0,0,0-5.9.6,12.6,12.6,0,0,0-5.1,2.7,9.2,9.2,0,0,0-1.4,1.4c-.5.6-1.1,1.2-1.6,1.9l-1.8,2c-.6.6-1.2,1.3-1.8,1.8a10.2,10.2,0,0,1-1.8,1.3,3.1,3.1,0,0,1-1.8.5,1.3,1.3,0,0,1-1.2-.5,1.4,1.4,0,0,1-.5-1.1v-.4a4.3,4.3,0,0,0,.1-.5c.1-.2.1-.5.2-.8s.1-.5.1-.7a1.3,1.3,0,0,0,.1-.5,8.8,8.8,0,0,0-.2-1.7l-.6-1.3a3.4,3.4,0,0,1-.6-1.2,2.8,2.8,0,0,1-.3-1.3c.4,0,.7,0,.9-.2a4.3,4.3,0,0,0,.4-.7l.4-.7a2.4,2.4,0,0,1,.8-.6h.6l.8-.2c.4.1.7-.1,1-.1h.5a1.2,1.2,0,0,0,.9-.3,2.3,2.3,0,0,1,.7-.7h.4q.2,0,.3.3a1,1,0,0,0,.1.4c.1-.1.2-.3.4-.3l.7-.4,1.1-.6a5.7,5.7,0,0,1,1.3-.8l1.4-.8,1.1-.7.5-.4,2.1-1.2,1.8-.7,1.9-.2h6.5l1.4.5,1.6.3,1.5.3,1.6.5a17.7,17.7,0,0,1,4.5,3,18,18,0,0,1,3.2,4.2,21.8,21.8,0,0,1,1.7,5.1,19.8,19.8,0,0,1,.5,5.4v2.3Z"/></svg>