<svg xmlns="http://www.w3.org/2000/svg"><symbol id="brachiosaurus" viewBox="0 0 256 256"><path d="M58.1 166.7a32.5 32.5 0 0 0-7.7.8v.2c0 .3.3.6.8.9a12 12 0 0 0 2 1.1l2.6 1 2.8.8 2.4.6 1.5.2h2.1l2.6-.4a9.2 9.2 0 0 0 2.3-.9 3.4 3.4 0 0 0 1.7-1.4 24.3 24.3 0 0 0-6.4-2.2 29.9 29.9 0 0 0-6.7-.7z"/><path d="M127 .7a127 127 0 1 0 127 127A127 127 0 0 0 127 .7zm82.8 70v.4a7.8 7.8 0 0 1-.1 1.3l-.3 2.2a11.8 11.8 0 0 1-.4 2 11.3 11.3 0 0 1-.2 1.4 10.1 10.1 0 0 0-.9 1.8l-.6 2-.6 2-.7 1.9-1.7 3.1a21.1 21.1 0 0 0-1.6 3l-19.9 27.7-.3.6c-.1.1-.1.2-.2.2l-.4.3-.4.5-1.6 2.3-2.1 2.8c-.7 1.1-1.4 2.2-2.2 3.3s-1.4 2.2-1.9 3.2a19.4 19.4 0 0 0-1.4 3 6 6 0 0 0-.6 2.3c0 .3-.2.6-.2.8a1.4 1.4 0 0 1 .2.7c-.1 0-.2.1-.2.3a.6.6 0 0 0 .2.5v10.1a4.4 4.4 0 0 1-.2 1c-.2.4-.2.8-.4 1.2s-.5.8-.6 1.2-.4.8-.4 1.1v1.7a.4.4 0 0 1-.1.4 5.9 5.9 0 0 1-.4.8c-.1.3-.5.5-.7.8a1.4 1.4 0 0 1-.5.4v.4c0 .1.7.2.8.4s.9.3.9.4v2.9c0 1.1-.5 2.3-.6 3.5s-.6 2.3-.8 3.5-.5 2.3-.7 3.5a19.8 19.8 0 0 0-.3 3.5q0 3.2.3 6.3a41 41 0 0 0 1.1 6.1 31 31 0 0 0 2.1 5.8 24.5 24.5 0 0 0 3.4 5.2 3.2 3.2 0 0 1-1.3.8l-1.6.7-1.7.5h-2l-1-.2-1.2-.3-1-.2h-.7l-.7-.3a1.8 1.8 0 0 1-.7-.5l-.3-.7a27.7 27.7 0 0 0 .1-4.1 29.7 29.7 0 0 0-.3-4.2c-.1-1.4-.3-2.9-.5-4.3s-.3-2.8-.5-4.1-.1-.3-.2-.6a3.9 3.9 0 0 1-.2-.6c0-1.1.1-2.3.1-3.6s0-2.7-.1-4.1a26.3 26.3 0 0 0-.6-3.9 16 16 0 0 0-1.4-3.5 3.2 3.2 0 0 0-1.5 1.9 17.3 17.3 0 0 0-.8 2.7c-.2.9-.2 1.9-.4 2.9a11.8 11.8 0 0 0-.9 2.3v3.8a16.1 16.1 0 0 0 0 2.2v1.5c0 2.9-.3 5.6-.1 8.3s.2 5.4.5 8.2l.4.4.8.5.8.7c.3.3.4.5.4.7s-.3.5-.8.8l-1.9.8a17.6 17.6 0 0 1-2 .9l-1.3.4h-.2l-4.7-2.6a.4.4 0 0 1-.2-.5v-.6a29.9 29.9 0 0 1 0-3 28.1 28.1 0 0 0 .1-3 23.4 23.4 0 0 0-.3-3.8l-.6-3.7-.6-3.7c-.1-1.3-.2-2.6-.2-3.9s0-2.4.1-3.4l.3-2.8.6-2.8c.2-.9.4-2 .6-3.1a1.1 1.1 0 0 0 0-.8 2 2 0 0 1-.1-.7l-1.9.2-1.9.6-1.9.6-1.9.5-1.4.2h-2l-1.1-.2h-7a46.1 46.1 0 0 0-5.3-.2H120a5.4 5.4 0 0 0-2.4.9 45.1 45.1 0 0 1 0 5.2c0 1.7-.1 3.4-.1 5.1l-.3 5.1c0 1.7-.1 3.4-.1 5.2v1a7.5 7.5 0 0 0 0 1.5v2.6c0 .5.6 1.1 1.1 1.6s.9 1.2 1.4 1.7l1.2 1.8a4.1 4.1 0 0 1 .5 1.8v.4a11.2 11.2 0 0 1-4.1.4c.1.4 0 .7-.2.7h-2.7a8.6 8.6 0 0 1-2.3-.2 3.7 3.7 0 0 1-1.8-.8 2.4 2.4 0 0 1-.8-1.9 6.9 6.9 0 0 1 .2-1.3l.3-1.3.3-1.3a6.1 6.1 0 0 0 .1-1.4 23.6 23.6 0 0 0-.2-3.8c-.2-1.2-.4-2.4-.7-3.6s-.5-2.6-.8-3.8a29.6 29.6 0 0 1-.7-4h-.5c-.2 0-.3.8-.5.9a2.5 2.5 0 0 1-.4.7l-.3.6-1.5 2.2a15 15 0 0 0-1.5 2.3 25.6 25.6 0 0 0-1.1 2.4 8.4 8.4 0 0 0-.4 2.7 4.1 4.1 0 0 0 .3 1.6l.7 1.5.8 1.2a1.5 1.5 0 0 1 .3.6.8.8 0 0 1-.4.7l-1 .5-1.3.2h-4.4a1.5 1.5 0 0 1-1-.4 1.8 1.8 0 0 1-.7-.8 10.7 10.7 0 0 1-.6-1.7 14.2 14.2 0 0 0-.5-1.6 4.1 4.1 0 0 1-.3-1.6 4.2 4.2 0 0 1 .4-1.5 14 14 0 0 1 1-1.6l1-1.6a8 8 0 0 0 .9-1.4l2.4-5.9c.8-2 1.6-3.9 2.5-5.9l.4-.8.6-.7.4-.7a2.9 2.9 0 0 0 .2-.9.5.5 0 0 0-.4-.6h-1.2l-9 2.5a3.2 3.2 0 0 1-1.3.5l-1.8.4a4.4 4.4 0 0 0-1.6.6 1.1 1.1 0 0 0-.7 1 1.2 1.2 0 0 0 .3.9 2.3 2.3 0 0 0 .7.7l.8.5.7.6-.4.5-1.2-.9-1.5-.8a3.4 3.4 0 0 0-1.5-.6 3.9 3.9 0 0 0-1.5-.2 12.8 12.8 0 0 0-3.8.5l-3.9 1.1L72 180a15.1 15.1 0 0 1-4.2.5 18.5 18.5 0 0 1-3.5-.4 37 37 0 0 1-4.9-1.1c-1.7-.5-3.5-1-5.4-1.7a46.7 46.7 0 0 1-5-2.3 13 13 0 0 1-3.6-2.7 4 4 0 0 1-1.5-2.9 4.9 4.9 0 0 1 1.1-3.3 7.1 7.1 0 0 1 2.8-1.6c1.1-.4 2.2-.1 3.5-.2s2.3.4 3.3.4h4a2.4 2.4 0 0 1 1.3-.3 21.5 21.5 0 0 1 2.3.2l2.6.3 1.9.2a7.6 7.6 0 0 1 2 .6l1.7.8 1.9.8a6.4 6.4 0 0 0 2 .3 9.1 9.1 0 0 0 4-1c1.3-.8 2.7-1.6 4.1-2.6l3.9-3.1 3.2-2.7 1.9-1.3 1.8-1.1 1.8-1.2 1.5-1.7c.9-1.5 1.8-2.9 2.6-4.5a25.6 25.6 0 0 1 2.7-4.5l1.3-1.3 1.5-1 1.6-.8 1.7-1a40.6 40.6 0 0 0 3.6-2.6l3.4-2.9 3.4-3c1.1-1 2.2-2 3.4-2.9a28.8 28.8 0 0 1 3.8-2.2l3.9-1.8 2.5-1.3 2.5-1.3 2.5-1.2 2.7-.7 22.4-3.3a9.5 9.5 0 0 0 3.5-1.1 17.2 17.2 0 0 0 3.3-2.2 21.5 21.5 0 0 0 3.2-2.9c1-1 2-2.1 2.9-3.2l2.7-3.2 2.3-2.8 7.7-9 .4-.3.5-.5.5-.5c.2-.2.2-.3.3-.3l2-3.3h.3l.3-.3.4-.2.2-.2.5-.4.3-.4 1.3-1.7 1.3-2 1.4-1.9c.3-.7.7-1.2.9-1.7a18.9 18.9 0 0 0 .9-2.1 17.2 17.2 0 0 1 .7-2.1c.2-.7.5-1.4.7-2.2s1-1.4 1-2.2v-6.2a4.5 4.5 0 0 0-1.1-3 11 11 0 0 0-2.6-2.7 17.4 17.4 0 0 0-3.3-1.8 10.4 10.4 0 0 0-3.2-.6 28.1 28.1 0 0 0-5.9.6 12.6 12.6 0 0 0-5.1 2.7 9.2 9.2 0 0 0-1.4 1.4c-.5.6-1.1 1.2-1.6 1.9l-1.8 2c-.6.6-1.2 1.3-1.8 1.8a10.2 10.2 0 0 1-1.8 1.3 3.1 3.1 0 0 1-1.8.5 1.3 1.3 0 0 1-1.2-.5 1.4 1.4 0 0 1-.5-1.1v-.4a4.3 4.3 0 0 0 .1-.5c.1-.2.1-.5.2-.8s.1-.5.1-.7a1.3 1.3 0 0 0 .1-.5 8.8 8.8 0 0 0-.2-1.7l-.6-1.3a3.4 3.4 0 0 1-.6-1.2 2.8 2.8 0 0 1-.3-1.3c.4 0 .7 0 .9-.2a4.3 4.3 0 0 0 .4-.7l.4-.7a2.4 2.4 0 0 1 .8-.6h.6l.8-.2c.4.1.7-.1 1-.1h.5a1.2 1.2 0 0 0 .9-.3 2.3 2.3 0 0 1 .7-.7h.4q.2 0 .3.3a1 1 0 0 0 .1.4c.1-.1.2-.3.4-.3l.7-.4 1.1-.6a5.7 5.7 0 0 1 1.3-.8l1.4-.8 1.1-.7.5-.4 2.1-1.2 1.8-.7 1.9-.2h6.5l1.4.5 1.6.3 1.5.3 1.6.5a17.7 17.7 0 0 1 4.5 3 18 18 0 0 1 3.2 4.2 21.8 21.8 0 0 1 1.7 5.1 19.8 19.8 0 0 1 .5 5.4v2.3z"/></symbol><symbol id="micropachycephalosaurus" viewBox="0 0 256 256"><path d="M132.8 151.7c-.2 0-.4.2-.4.6h-.1c-.3 0-.4.1-.4.4s.1.6.4.6.5-.2.5-.6c.4 0 .6-.1.6-.4a.5.5 0 0 0-.6-.6zm1.5-.8a1.8 1.8 0 0 0-.9.8h.3a2.1 2.1 0 0 0 1.1-.4 2.2 2.2 0 0 0 .9-.7h-.3a2.3 2.3 0 0 0-1.1.3zm3-2.6c-.3 0-.4.2-.4.6h-.1c-.3 0-.4.1-.4.5h-.2c-.3 0-.4.2-.4.6s.1.6.4.6.5-.2.5-.6h.1c.3 0 .4-.2.4-.6h.1c.4 0 .5-.2.5-.5s-.1-.6-.5-.6zm23.1-5.9a8.9 8.9 0 0 1-1.3 1.4 2.6 2.6 0 0 0 .8 1.1l1.2.2a2.4 2.4 0 0 0 1.4-.5 5.8 5.8 0 0 0 1-1.2 10.9 10.9 0 0 0 .8-1.5c.2-.5.4-1.1.5-1.1h-3.4c-.2 0-.5 1-1 1.6z"/><path d="M128.3 2.3a126.4 126.4 0 1 0 126.4 126.4A126.4 126.4 0 0 0 128.3 2.3zm94.8 75l-1.6.4h-3.7a37.5 37.5 0 0 0-5.1 1.3 14.2 14.2 0 0 0-3.7 1.5 10.2 10.2 0 0 0-2.4 2.2 11.9 11.9 0 0 0-1.8 2.9 40.4 40.4 0 0 0-1.5 3.9c-.4 1.5-1 3.1-1.6 5l-1.2 3.5-1.2 3.2-1.5 3.1-1.7 3.2a41.5 41.5 0 0 1-2.7 4.1l-2.9 3.6-3.1 3.6a30 30 0 0 0-3.1 3.8 9.4 9.4 0 0 0-1.4 2.6l-.9 2.6a7 7 0 0 1-1.4 2.1 4.8 4.8 0 0 1-2.4 1.6l-1.4.6-2 .7-2 .6-1.3.4a2.8 2.8 0 0 1 .1 2 2.4 2.4 0 0 1-.8.9l-1.2.6a1.3 1.3 0 0 0-.9.9l-2.3 6.7a2.3 2.3 0 0 1-1 1.5 5.1 5.1 0 0 1-1.8.9 12.3 12.3 0 0 1-2 .2l-1.8-.2h-.9c-.4 0-.8.2-1.1.1s-.4-.3-.4-.8 0-.3.1-.4l.3-.3.2-.3c.1-.1.1-.2.1-.4v-.2a28.1 28.1 0 0 0-3.5 1.7l-3.3 2-3.3 2.2a22.7 22.7 0 0 1-3.4 1.9l-.8.5-1.2.6-1 .7a2.1 2.1 0 0 0-.4 1.1v.5l1.7 1.7 2 1.7 2 1.6 2.1 1.2 1.8.7 1.9.5 1.9.7a7 7 0 0 1 1.7.9 5.8 5.8 0 0 1 1.3 1.4l1.1 1.5a13.4 13.4 0 0 0 1.1 1.4 6.4 6.4 0 0 0 1.5 1.3l1.6.6 2.1.6a7.7 7.7 0 0 1 1.8 1 2.1 2.1 0 0 1 .7 1.7v.5l-5.6 1.2a2.9 2.9 0 0 0-1 .3 2.1 2.1 0 0 1-1.2.3h-.6c-.1-.2-.5-.4-1.1-.7l-1.7-1-1.7-1-1-.7-.2-.2-.3-.5-.4-.6-.2-.4-2.3-4.5-1.1-.4-1.8-.8-2.1-.9-2.2-1-1.7-.8-1.1-.6a19.1 19.1 0 0 1-2.8-1.5 27.5 27.5 0 0 1-2.6-2.2 12.1 12.1 0 0 1-2-2.6 7.5 7.5 0 0 1-1-3.2l-.6.3-.6.3-.9.6a8.3 8.3 0 0 1-1.7 1.2l-2.1 1.4-2.1 1.4-1.7 1-1 .6-5.9 3.5a19.7 19.7 0 0 0-4.5 3.4 15.4 15.4 0 0 0-3.6 4.4c-.9 1.7-.7 3.9-2.4 6.6v1.5a8.5 8.5 0 0 0 1.2 4.4 6.9 6.9 0 0 0 2.1 2.6 8.2 8.2 0 0 0 2.6 1.4 14.5 14.5 0 0 1 2.5 1 5.3 5.3 0 0 1 2 .9 6 6 0 0 1 .8 2h-13.2c-.1 0-.1-.2-.2-.4l-.4-.2h-.5l-.6-.3a2.8 2.8 0 0 1-1.2-1.6 6.5 6.5 0 0 1-.5-2.1 9 9 0 0 1 .2-2.3c0-.8.3-1.5.3-2.1v-1.4a7.3 7.3 0 0 1 .2-1.8l.6-2.6c.3-1 .5-2.1.8-3.2s.5-2.1.8-3.1.5-1.9.6-2.7l.5-1.7c.2-.8.4-1.4.6-2a11.8 11.8 0 0 1 1-1.9 16 16 0 0 0 4.5-2.5 32.7 32.7 0 0 0 3.2-3.3l2.9-3.4a14.5 14.5 0 0 1 3.4-3.1l1.4-.7 2.1-.8 2.3-.9 2.1-1.2a5.3 5.3 0 0 0 1.6-1.3 2.2 2.2 0 0 0 .6-1.5v-1.3a1.8 1.8 0 0 0-.6-1.3l-.8-.2-1.2-.6-1.2-.5-.7-.3a9.2 9.2 0 0 1-2.1-1.3l-2.6-1.8a25.6 25.6 0 0 0-2.5-1.6 3 3 0 0 0-1.7-.5h-7.9c-5.9 0-11.8-.1-17.5.1s-11.7.2-17.6.2c-4.4 0-8.6-.2-12.8-.4a98.4 98.4 0 0 1-12.3-1.4 68.9 68.9 0 0 1-11.9-2.9 63.2 63.2 0 0 1-11.8-5l-1.4-.7-1.6-1a8 8 0 0 1-1.3-1.3 3 3 0 0 1-.5-1.6 9.5 9.5 0 0 1 2.1.4l2.4 1 2.2.9 1.5.7 4.6 1.6 5 1.4a30.6 30.6 0 0 0 5.1 1 27.7 27.7 0 0 0 4.9.4h26.3l2.6-.4 3.3-.5 3.6-.6 3.4-.6 2.7-.6 6.9-1.3 7.3-1.6 7.2-2.1a65.4 65.4 0 0 0 6.6-2.8l3.8-1.8 3.7-1.6 4-1.3a27.1 27.1 0 0 1 4.1-.9h2.8l1.8-.2 1-.2 1.9-.3 3.3-.7 4.1-.9 4-.9c1.2-.3 2.3-.9 3.3-1.1s1.5-.8 1.9-.8h6.5a68.2 68.2 0 0 1 7.9.8c2.5.2 5.1.5 7.8.5a10.1 10.1 0 0 0 5-1.3 16.2 16.2 0 0 0 4.4-3.5 32.3 32.3 0 0 0 3.9-4.9 44.8 44.8 0 0 0 3.2-5.6 55.3 55.3 0 0 0 2.6-5.6c.7-1.8 1.3-3.4 1.7-4.7s.8-2.4 1.2-3.5a28.1 28.1 0 0 1 1-3.1 10.3 10.3 0 0 1 1.2-2.6 6.5 6.5 0 0 1 1.7-2 9.5 9.5 0 0 1 2.6-1.6 13.4 13.4 0 0 1 3.8-.8h3.1c.7 1.7 1.7 1 2.9 1.3a37.3 37.3 0 0 1 3.5 1.6 10.9 10.9 0 0 1 3 1.8 2.7 2.7 0 0 1 1.2 2.1 2 2 0 0 1-.4 1.4 3.1 3.1 0 0 1-1.1.4z"/></symbol><symbol id="velociraptor" viewBox="0 0 256 256"><path d="M127.7 1a126.7 126.7 0 1 0 126.6 126.7A126.7 126.7 0 0 0 127.7 1zm109.5 115.6a28 28 0 0 1-4.1 0h-3.2a91 91 0 0 1-9.1-.4l-9.1-1-9.1-.9a90.8 90.8 0 0 0-9.1-.5 125.8 125.8 0 0 0-16.2 1 75.7 75.7 0 0 0-15.8 3.7l-30.4 11a2.4 2.4 0 0 0-1.2 1.5 22.9 22.9 0 0 0-.8 2.8 28.6 28.6 0 0 0-.7 2.8 4.7 4.7 0 0 1-.6 1.9 3.1 3.1 0 0 0 1.4 1.4l2.4 1.1 2.9 1.2 2.8 1.4a9.1 9.1 0 0 1 2 1.9 3.5 3.5 0 0 1 .8 2.4 2 2 0 0 1-.4 1.3 5 5 0 0 1-1.2.8l-1.6.8-1.6.7a6.9 6.9 0 0 0-1.3 1.1 2.4 2.4 0 0 0-.4 1.5 3.7 3.7 0 0 0 .7 2.5 10.8 10.8 0 0 0 2 1.6 17.1 17.1 0 0 0 2.3 1.3 7.6 7.6 0 0 1 2.2 1.7 17.5 17.5 0 0 1 2 3.5c.5 1.2.9 2.4 1.3 3.6s.5 2.5.7 3.9.1 2.6.3 3.9l1.3 1.3v7.1h.8l1.1.2.9.2.6.3a5.4 5.4 0 0 0 .1.8c0 .2-.1.6-.1 1a5.6 5.6 0 0 1-.4 1.2l-.6.9a1 1 0 0 1-.9.3h-5.2c-.2 0-.5-.5-1-.8l-1.4-.8-1.6-.8c-.5-.3-.9-.9-1.1-.9h-6.2a4.2 4.2 0 0 1 .7-2.9 3.3 3.3 0 0 1 1.6-1.5 5.8 5.8 0 0 1 2.1-.7l2.1-.3 1.7-.6a1.7 1.7 0 0 0 .6-1.4v-.3a.4.4 0 0 0-.1-.3 11.2 11.2 0 0 0-.8-1.8c-.4-.8-.8-1.6-1.3-2.4a12.8 12.8 0 0 0-1.5-2.5 7.1 7.1 0 0 0-1.5-1.8l-1.3-.8-1.9-.9-1.7-1.1a1.7 1.7 0 0 1-1-1.1c-.3-.8-.6-1.8-.9-2.9a30.1 30.1 0 0 0-1.1-3.2 7.8 7.8 0 0 0-1.7-2.6 3.9 3.9 0 0 0-2.9-1 24.7 24.7 0 0 0-6 .8 25.3 25.3 0 0 0-10.7 5.7 21.1 21.1 0 0 0-3.9 4.5l-.3.2h-.2c-.1 0-.1-.1-.1-.2s-.1-.1-.2-.3-.1-.4-.2-.6-.1-.5-.1-.6-.1-.3-.2-.4h-.3a1.3 1.3 0 0 0-1 .4l-.9 1.2-.8 1.3a3 3 0 0 1-.9 1 3.2 3.2 0 0 1-.6-1.6 8.6 8.6 0 0 1-.1-1.7 9.7 9.7 0 0 1 .4-2.9l.9-2.7c.3-1 .6-1.6.9-2.6a15.2 15.2 0 0 0 .4-2.7h-4.8c0-1.7.2-1.8.6-2.4a6.1 6.1 0 0 1 1.6-1.6 6.7 6.7 0 0 1 2.1-.9l2.1-.3 3 .2 3 .5 2.8.4a14.6 14.6 0 0 0 2.9.2h2.3a2.5 2.5 0 0 0-1.6-1.4l-2.6-.5-2.6-.2c-.9-.1-1.7.1-2.2-.2l-3.9-2.2h-.3a10.7 10.7 0 0 0-3.1 0 17.1 17.1 0 0 1-3.2.1 7.3 7.3 0 0 1-3-.7l-2.6-1.3-2.6-1.4a5.2 5.2 0 0 0-2.9-.6v6h1.6l1-.4.9-.5c.3-.2.3-.4.9-.6s.6-.1.6-.2v2.8l2-.7c0 .1.2.3.2.5a4.3 4.3 0 0 0 .1.5 5.6 5.6 0 0 1-1.3 3.9 24.4 24.4 0 0 1-3.3 2.9 19.1 19.1 0 0 0-4.5-1.3l-4.8-.6V147l-1.7.5-2.1 1-1.9 1.2c-.4.4-.9.8-.9 1.2v6.8a15.7 15.7 0 0 0 2.9-.2l1.9-.6 1.2-.6a2.4 2.4 0 0 1 1.2-.3h.4l.3.7.4 1.2a9.3 9.3 0 0 1 .4 1.3 5.8 5.8 0 0 1 .2 1 7.2 7.2 0 0 1-.4 1.9 8.7 8.7 0 0 1-1.1 1.8 4.7 4.7 0 0 1-1.5 1.3 3.3 3.3 0 0 1-1.9.6h-1l-3-.4-3.6-.7a11.9 11.9 0 0 1-3.2-1.3 2.5 2.5 0 0 1-1.5-2.1v-11.8l.9-.8 1.9-1.6 2.4-2.2 2.3-2.5a21.1 21.1 0 0 0 1.8-2.7 5.2 5.2 0 0 0 .8-2.6 3.7 3.7 0 0 0-1.2-2.7 9.5 9.5 0 0 0-2.8-2 23 23 0 0 0-3.2-1.5l-2.6-.8-1.3-9.1a16.8 16.8 0 0 0-.6-2.7 9.6 9.6 0 0 0-1.1-2.8 6.8 6.8 0 0 0-1.7-2.1 4.2 4.2 0 0 0-2.7-.9 12.5 12.5 0 0 0-3.6.5 13 13 0 0 0-3.2 1.5l-1.6 1L44 117l-2.9 1.8-3 1.7a27.1 27.1 0 0 0-2.5 1.7c-.8.4-1.3 1.1-1.7 1.1h-1l-1.7-.3a12 12 0 0 1-2-.3 4.7 4.7 0 0 1-1.4-.8c-.5-.3-.4-.8-.4-1.4v-1.8c0-.6-.2-.9.1-1H29v-.4c.1-.3.1-.5.2-.8s.1-.6.2-.9v-.5l-.8-.8-.9-.5-.7-.6a2.3 2.3 0 0 1-.3-1.3 3 3 0 0 1 .3-1.2 4.1 4.1 0 0 1 .7-1.1c.2-.4.2-.7.6-.9l.8-.3v.8c0 .4.4.9.5 1.4a1.2 1.2 0 0 0 1.2.7 1.5 1.5 0 0 0 1.1-.4 4 4 0 0 0 1-1.2 7.6 7.6 0 0 0 .6-1.6c.2-.4.3.3.3-1.4H21.6l-.9-.4-1-.7-.9-.8a1.3 1.3 0 0 1-.4-1 4.6 4.6 0 0 1 1.1-3.2 6.1 6.1 0 0 1 2.6-1.8 16 16 0 0 1 3.1-1 17.1 17.1 0 0 0 2.9-.8l2.2-.9 3.3-1.6 3.4-1.6a8.8 8.8 0 0 1 2.1-1h13.6a7 7 0 0 1 3.8 1 12.6 12.6 0 0 1 3.2 2.5 28.5 28.5 0 0 1 2.5 3.3l2.3 3.3a18.6 18.6 0 0 0 2.2 2.5 3.6 3.6 0 0 0 2.5 1 .8.8 0 0 0 .8-.4c.1-.3.4-.4.8-.4a4 4 0 0 1 1.5.3l1.5.7 1.6.7 1.5.3a27.5 27.5 0 0 0 4.1-.2l4.1-.4 4.1-.5 4.1-.2a58.5 58.5 0 0 1 7.3.4 33.5 33.5 0 0 1 7.2 1.6c1.6.5 3.3 1.2 5 1.9l5.1 2.2a31.6 31.6 0 0 0 5.2 1.7 19 19 0 0 0 5.4.7h2.6l12.8-2.7c4.3-.8 8.5-1.6 12.8-2.2s8.5-1.2 12.8-1.6 8.7-.6 13.1-.6h3.3l5.5.2a33.5 33.5 0 0 1 5.1.9l36.2 7.2h11.7c-.8 0-1.9 1-3.1 1.4a27.5 27.5 0 0 1-4.1.1z"/></symbol></svg>