<?xml version="1.0" encoding="utf-8"?>
<!-- Generator: Adobe Illustrator 24.3.0, SVG Export Plug-In . SVG Version: 6.00 Build 0)  -->
<svg version="1.1" id="Layer_1" xmlns="http://www.w3.org/2000/svg" xmlns:xlink="http://www.w3.org/1999/xlink" x="0px" y="0px"
	 viewBox="0 0 960 560" style="enable-background:new 0 0 960 560;" xml:space="preserve">
<style type="text/css">
	.st0{fill:#0056CB;}
</style>
<g>
	<path class="st0" d="M549.4,299.2c-1.6,0-3.2,0.2-4.6,0.5c0,0,0,0,0,0.1c0,0,0,0.1,0,0.1c0,0.2,0.2,0.4,0.5,0.6
		c0.3,0.2,0.7,0.4,1.2,0.6c0.5,0.2,1,0.4,1.6,0.6c0.6,0.2,1.1,0.4,1.7,0.5c0.5,0.1,1,0.3,1.5,0.4c0.4,0.1,0.7,0.1,0.9,0.1
		c0.4,0,0.8,0,1.3-0.1c0.5,0,1-0.1,1.5-0.2c0.5-0.1,1-0.3,1.4-0.5c0.4-0.2,0.8-0.5,1-0.9c-1.2-0.6-2.5-1-3.9-1.3
		C552.1,299.3,550.8,299.2,549.4,299.2z"/>
	<path class="st0" d="M591,199c-42.3,0-76.7,34.3-76.7,76.7c0,42.3,34.3,76.7,76.7,76.7s76.7-34.3,76.7-76.7
		C667.7,233.3,633.3,199,591,199z M641,241.3v0.2c0,0.2,0,0.4-0.1,0.8c-0.1,0.4-0.1,0.8-0.2,1.3c-0.1,0.4-0.1,0.9-0.2,1.3
		c-0.1,0.4-0.1,0.7-0.1,0.8c-0.2,0.3-0.4,0.7-0.5,1.1c-0.1,0.4-0.3,0.8-0.4,1.2c-0.1,0.4-0.2,0.8-0.3,1.2c-0.1,0.4-0.3,0.8-0.4,1.2
		c-0.3,0.7-0.7,1.3-1,1.8c-0.4,0.6-0.7,1.2-1,1.8l-12,16.7c0,0.2-0.1,0.3-0.1,0.3c-0.1,0.1-0.1,0.1-0.2,0.2c0,0-0.1,0.1-0.2,0.2
		c-0.1,0.1-0.1,0.2-0.2,0.3c-0.3,0.4-0.6,0.8-1,1.4c-0.4,0.5-0.8,1.1-1.2,1.7c-0.4,0.6-0.9,1.3-1.3,2c-0.4,0.7-0.8,1.3-1.2,2
		c-0.3,0.6-0.6,1.2-0.8,1.8c-0.2,0.6-0.3,1-0.3,1.4c0,0.2-0.1,0.3-0.1,0.4s0.1,0.3,0.1,0.4v0c-0.1,0-0.2,0.1-0.2,0.2
		c0,0.2,0.1,0.2,0.2,0.2v6.1c0,0.2-0.1,0.4-0.1,0.6c-0.1,0.2-0.1,0.5-0.2,0.7c-0.1,0.2-0.3,0.5-0.4,0.7c-0.1,0.2-0.3,0.5-0.3,0.7v1
		c0,0,0.1,0.1,0,0.3c-0.1,0.1-0.1,0.3-0.2,0.5c-0.1,0.2-0.3,0.3-0.4,0.5c-0.1,0.2-0.3,0.2-0.3,0.2v0.2c0,0,0.4,0.1,0.5,0.2
		c0.1,0.1,0.5,0.2,0.5,0.2v0.3c0,0.1,0,0.3,0,0.5s0,0.4,0,0.5v0.4c0,0.7-0.3,1.4-0.4,2.1c-0.1,0.7-0.3,1.4-0.5,2.1
		c-0.1,0.7-0.3,1.4-0.4,2.1c-0.1,0.7-0.2,1.4-0.2,2.1c0,1.3,0,2.5,0.2,3.8c0.1,1.3,0.3,2.5,0.7,3.7c0.3,1.2,0.7,2.4,1.3,3.5
		c0.5,1.1,1.2,2.2,2.1,3.2c-0.2,0.2-0.4,0.3-0.8,0.5c-0.3,0.2-0.7,0.3-1,0.4c-0.3,0.1-0.7,0.2-1,0.3c-0.3,0.1-0.6,0.1-0.9,0
		c0,0-0.1,0-0.3-0.1c-0.2,0-0.4-0.1-0.6-0.2c-0.2,0-0.5-0.1-0.7-0.2c-0.2-0.1-0.4-0.1-0.6-0.1c-0.1,0-0.3,0-0.4-0.1
		c-0.2,0-0.3-0.1-0.5-0.2c-0.1-0.1-0.3-0.2-0.4-0.3c-0.1-0.1-0.2-0.2-0.2-0.4c0.1-0.8,0.1-1.6,0.1-2.5c0-0.9-0.1-1.7-0.2-2.6
		c-0.1-0.9-0.2-1.7-0.3-2.6c-0.1-0.8-0.2-1.7-0.3-2.5c0-0.1-0.1-0.2-0.1-0.4c-0.1-0.2-0.1-0.3-0.2-0.4c0-0.7,0.1-1.4,0.1-2.2
		c0-0.8,0-1.6-0.1-2.4c-0.1-0.8-0.2-1.6-0.4-2.4c-0.2-0.8-0.5-1.5-0.9-2.1c-0.4,0.2-0.7,0.6-0.9,1.1c-0.2,0.5-0.3,1.1-0.5,1.6
		c-0.1,0.6-0.1,1.2-0.3,1.7c-0.2,0.6-0.6,1-0.6,1.4v0.9c0,0.4,0,0.9,0,1.4c0,0.5,0,0.9,0,1.4v0.9c0,1.7-0.1,3.4-0.1,5
		c0.1,1.6,0.1,3.3,0.3,5c0,0,0.1,0.1,0.2,0.2c0.2,0.1,0.3,0.2,0.5,0.4c0.2,0.1,0.3,0.3,0.5,0.4c0.1,0.1,0.2,0.3,0.2,0.4
		c0,0.1-0.2,0.3-0.5,0.5c-0.3,0.2-0.7,0.4-1.1,0.5c-0.4,0.2-0.8,0.4-1.2,0.5c-0.4,0.1-0.6,0.2-0.8,0.2H606l-2.9-1.6
		c-0.2-0.1-0.1-0.2-0.1-0.3v-0.4c0-0.7-0.1-1.3,0-1.8c0.1-0.5,0.1-1.2,0.1-1.8c0-0.8-0.1-1.5-0.2-2.3c-0.1-0.8-0.2-1.5-0.4-2.2
		c-0.1-0.8-0.2-1.5-0.4-2.3c-0.1-0.8-0.2-1.5-0.2-2.4c0-0.7,0-1.4,0.1-2c0.1-0.6,0.1-1.1,0.2-1.7c0.1-0.5,0.2-1.1,0.3-1.7
		c0.1-0.6,0.2-1.2,0.4-1.9c0-0.1,0-0.2,0-0.4c0-0.2-0.1-0.3-0.1-0.4c-0.4,0-0.8,0-1.1,0.1c-0.4,0.1-0.7,0.2-1.1,0.3
		s-0.8,0.2-1.2,0.4c-0.4,0.1-0.8,0.2-1.2,0.3c-0.3,0-0.6,0.1-0.8,0.1c-0.2,0-0.4,0.1-0.6,0.1c-0.2,0-0.4-0.1-0.6-0.1
		c-0.2,0-0.4-0.1-0.6-0.1h-1.1c-1.1,0-2.2,0.1-3.2,0c-1-0.1-2.1-0.1-3.2-0.1c-0.5,0-1,0-1.5,0.1c-0.5,0-1,0.2-1.4,0.5
		c0,1.1,0,2.1,0,3.1c0,1-0.1,2.1-0.1,3.1c0,1-0.1,2.1-0.2,3.1c0,1-0.1,2.1-0.1,3.1v0.6c0,0.3,0,0.6,0,0.9c0,0.3,0,0.6,0,0.9v0.6
		c0,0.3,0.4,0.7,0.7,1c0.3,0.3,0.6,0.7,0.8,1c0.3,0.3,0.5,0.7,0.7,1.1c0.2,0.3,0.3,0.7,0.3,1.1c0,0,0,0.1,0,0.1c0,0,0,0.1,0,0.1
		c-0.8,0.3-1.6,0.3-2.4,0.2c0.1,0.3,0,0.4-0.1,0.5c-0.2,0-0.3,0-0.4,0c-0.3,0-0.7,0-1.2,0c-0.5,0-0.9,0-1.4-0.1
		c-0.4-0.1-0.8-0.3-1.1-0.5c-0.3-0.2-0.5-0.6-0.5-1.1c0-0.3,0-0.5,0.1-0.8c0.1-0.3,0.1-0.5,0.2-0.8s0.1-0.5,0.2-0.8
		c0.1-0.3,0.1-0.5,0.1-0.8c0-0.8,0-1.6-0.2-2.3c-0.1-0.7-0.2-1.5-0.4-2.2c-0.2-0.7-0.3-1.6-0.5-2.3c-0.2-0.7-0.3-1.4-0.4-2.4h-0.3
		c-0.1,0-0.2,0.5-0.3,0.6c-0.1,0.1-0.2,0.3-0.2,0.4c-0.1,0.1-0.1,0.3-0.2,0.3c-0.3,0.5-0.6,0.9-0.9,1.4c-0.3,0.4-0.6,0.9-0.9,1.4
		c-0.3,0.5-0.5,1-0.7,1.5c-0.2,0.5-0.3,1.1-0.3,1.6c0,0.3,0.1,0.7,0.2,1c0.1,0.3,0.3,0.6,0.4,0.9c0.2,0.3,0.3,0.5,0.4,0.7
		c0.1,0.2,0.2,0.3,0.2,0.4c0,0.2-0.1,0.3-0.2,0.4c-0.2,0.1-0.4,0.2-0.6,0.3c-0.2,0.1-0.5,0.1-0.8,0.2c-0.3,0-0.6,0.1-0.8,0.1h-0.8
		c-0.4,0-0.8,0-1-0.1c-0.3,0-0.5-0.1-0.6-0.2c-0.2-0.1-0.3-0.3-0.4-0.5c-0.1-0.2-0.2-0.6-0.3-1c-0.1-0.3-0.2-0.7-0.3-1
		c-0.1-0.3-0.2-0.7-0.2-1c0-0.3,0.1-0.6,0.2-0.9c0.2-0.3,0.4-0.6,0.6-1c0.2-0.3,0.4-0.6,0.6-1c0.2-0.3,0.4-0.6,0.5-0.9
		c0.5-1.2,1-2.4,1.5-3.6c0.5-1.2,1-2.4,1.5-3.6c0.1-0.2,0.2-0.3,0.3-0.5c0.1-0.1,0.2-0.3,0.3-0.4c0.1-0.1,0.2-0.3,0.3-0.5
		c0.1-0.2,0.1-0.3,0.1-0.5c0-0.2-0.1-0.3-0.2-0.4c-0.1,0-0.3-0.1-0.4-0.1c-0.1,0-0.1,0-0.2,0c-0.1,0-0.1,0-0.1,0l-5.4,1.5
		c-0.2,0.2-0.4,0.2-0.8,0.3c-0.4,0.1-0.7,0.2-1.1,0.2c-0.4,0.1-0.7,0.2-1,0.3c-0.3,0.1-0.4,0.4-0.4,0.6c0,0.2,0.1,0.4,0.2,0.5
		c0.1,0.1,0.2,0.3,0.4,0.4c0.2,0.1,0.3,0.2,0.5,0.3c0.2,0.1,0.3,0.2,0.5,0.4l-0.2,0.3c-0.2-0.2-0.5-0.3-0.8-0.5
		c-0.3-0.2-0.6-0.3-0.8-0.5c-0.3-0.2-0.6-0.3-0.9-0.4c-0.3-0.1-0.6-0.1-0.9-0.1c-0.7,0-1.5,0.1-2.3,0.3c-0.8,0.2-1.6,0.4-2.4,0.7
		c-0.8,0.3-1.6,0.5-2.5,0.7c-0.8,0.2-1.7,0.3-2.5,0.3c-0.5,0-1.2-0.1-2.1-0.2c-0.9-0.1-1.9-0.4-2.9-0.7c-1.1-0.3-2.2-0.7-3.3-1.1
		c-1.1-0.4-2.1-0.9-3-1.4c-0.9-0.5-1.6-1-2.2-1.6c-0.6-0.6-0.9-1.2-0.9-1.8c0-0.9,0.2-1.5,0.7-2c0.4-0.5,1-0.8,1.7-1
		c0.7-0.2,1.4-0.1,2.1-0.1c0.7,0,1.4,0.2,2,0.2h0.6c0.3,0,0.5,0,0.8,0c0.2,0,0.5,0,0.7,0h0.3c0.1,0,0.3-0.2,0.8-0.2
		c0.4,0,0.9,0,1.4,0.1c0.5,0.1,1,0.1,1.5,0.2c0.5,0.1,0.9,0.1,1.2,0.2c0.4,0.1,0.8,0.2,1.2,0.3c0.4,0.2,0.7,0.3,1.1,0.5
		c0.4,0.2,0.7,0.3,1.1,0.5c0.4,0.1,0.8,0.2,1.2,0.2c0.8,0,1.6-0.2,2.4-0.6c0.8-0.4,1.7-0.9,2.5-1.5c0.8-0.6,1.6-1.2,2.3-1.9
		c0.8-0.6,1.4-1.2,2-1.6c0.4-0.3,0.7-0.5,1.1-0.8c0.4-0.2,0.8-0.4,1.1-0.7c0.4-0.2,0.7-0.5,1-0.8c0.3-0.3,0.6-0.6,0.9-1
		c0.6-0.9,1.1-1.8,1.6-2.7c0.5-0.9,1-1.8,1.6-2.7c0.2-0.3,0.5-0.6,0.8-0.8c0.3-0.2,0.6-0.4,0.9-0.6s0.7-0.4,1-0.5
		c0.3-0.2,0.7-0.4,1-0.6c0.7-0.5,1.5-1,2.2-1.6c0.7-0.6,1.4-1.2,2.1-1.8s1.4-1.2,2-1.8c0.7-0.6,1.4-1.2,2.1-1.7
		c0.7-0.5,1.5-1,2.3-1.3c0.8-0.4,1.6-0.7,2.4-1.1c0.5-0.2,1-0.5,1.5-0.8c0.5-0.3,1-0.5,1.5-0.8c0.5-0.3,1-0.5,1.5-0.7
		c0.5-0.2,1.1-0.4,1.6-0.5l13.5-2c0.7-0.1,1.4-0.3,2.1-0.7c0.7-0.4,1.4-0.8,2-1.3c0.7-0.5,1.3-1.1,1.9-1.7c0.6-0.6,1.2-1.3,1.8-2
		c0.6-0.7,1.1-1.3,1.6-1.9c0.5-0.6,1-1.2,1.4-1.7l4.6-5.4c0,0,0.1-0.1,0.2-0.2c0.1-0.1,0.2-0.2,0.3-0.3c0.1-0.1,0.2-0.2,0.3-0.3
		c0.1-0.1,0.2-0.2,0.2-0.2l1.2-2c0,0,0.1-0.1,0.1-0.1c0.1,0,0.2-0.1,0.2-0.1c0.1,0,0.2-0.1,0.2-0.1c0.1,0,0.1-0.1,0.1-0.1
		c0,0,0.1-0.1,0.2-0.2c0.1-0.1,0.2-0.2,0.2-0.2c0.2-0.3,0.5-0.6,0.8-1c0.3-0.4,0.6-0.8,0.8-1.2c0.3-0.4,0.5-0.8,0.8-1.2
		c0.2-0.4,0.4-0.7,0.6-1c0.2-0.4,0.4-0.8,0.5-1.2s0.3-0.9,0.4-1.3c0.1-0.4,0.3-0.9,0.5-1.3c0.2-0.4,0.6-0.9,0.6-1.3v-3.7
		c0-0.7-0.2-1.3-0.7-1.9c-0.4-0.6-1-1.1-1.6-1.6c-0.6-0.5-1.3-0.8-2-1.1c-0.7-0.3-1.4-0.4-1.9-0.4c-1.2,0-2.4,0.1-3.5,0.4
		c-1.1,0.3-2.1,0.8-3.1,1.6c-0.3,0.2-0.6,0.5-0.9,0.9c-0.3,0.4-0.6,0.7-1,1.1c-0.3,0.4-0.7,0.8-1.1,1.2c-0.4,0.4-0.7,0.8-1.1,1.1
		c-0.4,0.3-0.7,0.6-1.1,0.8c-0.4,0.2-0.7,0.3-1.1,0.3c-0.3,0-0.5-0.1-0.7-0.3c-0.2-0.2-0.3-0.4-0.3-0.7v-0.3c0,0,0-0.2,0.1-0.3
		c0-0.1,0.1-0.3,0.1-0.5c0-0.2,0.1-0.3,0.1-0.5c0-0.1,0-0.2,0-0.3c0-0.4,0-0.7-0.1-1c-0.1-0.3-0.2-0.6-0.4-0.8
		c-0.1-0.2-0.2-0.5-0.4-0.7c-0.1-0.2-0.1-0.5-0.1-0.8c0.2,0,0.4-0.1,0.5-0.2c0.1-0.1,0.2-0.2,0.3-0.4c0.1-0.1,0.2-0.3,0.3-0.5
		c0.1-0.1,0.3-0.3,0.5-0.4c0,0,0.1,0,0.3,0c0.1,0,0.3-0.1,0.5-0.1c0.2,0,0.4-0.1,0.5-0.1h0.3c0.3,0,0.5-0.1,0.6-0.2
		c0.1-0.2,0.2-0.3,0.4-0.4c0.1,0,0.1,0,0.1,0l0.1,0c0,0,0.1,0.1,0.2,0.2c0,0.1,0.1,0.2,0.1,0.3c0-0.1,0.1-0.2,0.2-0.2
		c0.1,0,0.2-0.1,0.4-0.2c0.2-0.1,0.4-0.2,0.7-0.4c0.2-0.2,0.5-0.3,0.8-0.5c0.3-0.2,0.6-0.3,0.8-0.5c0.3-0.1,0.5-0.3,0.7-0.4
		c0.2-0.1,0.3-0.2,0.3-0.2c0.5-0.3,0.9-0.6,1.3-0.8c0.4-0.2,0.7-0.3,1.1-0.4s0.7-0.1,1.2-0.1c0.4,0,0.9,0,1.6,0c0.1,0,0.2,0,0.5,0
		s0.4,0,0.7,0c0.3,0,0.5,0,0.7,0c0.2,0,0.4,0,0.5,0c0.3,0.2,0.6,0.2,0.9,0.3c0.3,0.1,0.6,0.1,0.9,0.2c0.3,0.1,0.6,0.1,0.9,0.2
		c0.3,0.1,0.6,0.2,0.9,0.3c1.1,0.5,2,1.1,2.8,1.8c0.8,0.8,1.4,1.6,1.9,2.5c0.5,0.9,0.8,1.9,1,3c0.2,1.1,0.3,2.2,0.3,3.3v0.4
		c0,0.2,0,0.3,0,0.5C641,241,641,241.1,641,241.3z"/>
</g>
<path class="st0" d="M829.7,65c-42.3,0-76.7,34.3-76.7,76.7c0,42.3,34.3,76.7,76.7,76.7c42.3,0,76.7-34.3,76.7-76.7
	C906.3,99.3,872,65,829.7,65z M896,135c-0.9,0.1-1.7,0.1-2.5,0c-0.8,0-1.5,0-2,0c-1.8,0-3.7-0.1-5.5-0.3s-3.7-0.4-5.5-0.6
	c-1.8-0.2-3.7-0.4-5.5-0.6c-1.8-0.2-3.7-0.3-5.5-0.3c-3.2,0-6.5,0.2-9.8,0.6c-3.3,0.4-6.5,1.1-9.5,2.2l-18.4,6.7
	c-0.3,0.1-0.5,0.4-0.7,0.9c-0.2,0.5-0.4,1.1-0.5,1.6c-0.1,0.6-0.3,1.2-0.4,1.7c-0.1,0.6-0.2,0.9-0.4,1.2c0.1,0.3,0.4,0.6,0.8,0.8
	c0.4,0.2,0.9,0.5,1.5,0.7c0.5,0.2,1.1,0.5,1.7,0.7c0.6,0.2,1.2,0.5,1.7,0.9c0.5,0.3,0.9,0.7,1.3,1.1c0.3,0.4,0.5,0.9,0.5,1.5
	c0,0.3-0.1,0.5-0.3,0.7c-0.2,0.2-0.4,0.4-0.7,0.5c-0.3,0.2-0.6,0.3-1,0.4c-0.4,0.1-0.7,0.3-1,0.5c-0.3,0.2-0.5,0.4-0.7,0.6
	c-0.2,0.2-0.3,0.5-0.3,0.9c0,0.7,0.2,1.2,0.5,1.5c0.3,0.4,0.7,0.7,1.2,0.9c0.5,0.3,0.9,0.5,1.4,0.8c0.5,0.3,0.9,0.6,1.3,1
	c0.5,0.7,0.9,1.4,1.2,2.1c0.3,0.7,0.6,1.5,0.8,2.2s0.3,1.5,0.5,2.3c0.1,0.8,0.1,1.6,0.2,2.4l0.8,0.8v4.3c0,0,0.3,0,0.5,0
	c0.2,0,0.4,0.1,0.6,0.1c0.2,0,0.4,0.1,0.6,0.1c0.2,0.1,0.3,0.1,0.3,0.1c0,0.3,0,0.4,0,0.5c0,0.1,0,0.3-0.1,0.6
	c0,0.2-0.1,0.5-0.2,0.8c-0.1,0.2-0.2,0.4-0.4,0.6c-0.2,0.2-0.3,0.2-0.5,0.2h-3.1c-0.1,0-0.3-0.3-0.6-0.5c-0.3-0.2-0.6-0.3-0.9-0.5
	s-0.6-0.3-0.9-0.5s-0.5-0.5-0.7-0.5h-3.7c0-1,0.1-1.4,0.4-1.8c0.3-0.4,0.6-0.7,1-0.9c0.4-0.2,0.8-0.3,1.3-0.4
	c0.5-0.1,0.9-0.1,1.3-0.2c0.4-0.1,0.7-0.2,1-0.4c0.3-0.2,0.4-0.4,0.4-0.8c0,0,0-0.1,0-0.2c0-0.1,0-0.2,0-0.2
	c-0.1-0.2-0.3-0.6-0.5-1.1c-0.2-0.5-0.5-1-0.8-1.5c-0.3-0.5-0.6-1-0.9-1.5c-0.3-0.5-0.6-0.8-0.9-1.1c-0.2-0.1-0.4-0.3-0.8-0.5
	c-0.4-0.2-0.7-0.4-1.1-0.6c-0.4-0.2-0.7-0.4-1.1-0.6c-0.3-0.2-0.5-0.4-0.6-0.7c-0.2-0.5-0.4-1.1-0.6-1.8c-0.2-0.7-0.4-1.3-0.6-1.9
	c-0.3-0.6-0.6-1.1-1-1.6c-0.4-0.4-1-0.6-1.7-0.6c-1.2,0-2.4,0.2-3.6,0.5c-1.2,0.3-2.4,0.8-3.4,1.3c-1.1,0.6-2.1,1.3-3,2.1
	c-0.9,0.8-1.7,1.7-2.4,2.8c0,0.1-0.1,0.1-0.2,0.1c0,0,0,0-0.1,0c0,0-0.1,0-0.1-0.1c0,0-0.1-0.1-0.1-0.2c0-0.1-0.1-0.2-0.1-0.4
	c0-0.1-0.1-0.3-0.1-0.4c0-0.1-0.1-0.2-0.1-0.2c-0.1,0-0.1,0-0.2,0c-0.2,0-0.5,0.1-0.6,0.3c-0.2,0.2-0.4,0.4-0.5,0.7
	s-0.3,0.5-0.5,0.8c-0.2,0.3-0.3,0.5-0.5,0.6c-0.2-0.4-0.4-0.7-0.4-1c0-0.3,0-0.6,0-1c0-0.6,0.1-1.2,0.2-1.8c0.2-0.6,0.3-1.1,0.5-1.7
	c0.2-0.6,0.4-0.9,0.5-1.5c0.2-0.6,0.2-1.7,0.2-1.7h-2.9c0-1,0.1-1.1,0.4-1.4c0.3-0.3,0.6-0.7,1-1c0.4-0.2,0.8-0.4,1.3-0.5
	c0.5-0.1,0.9-0.2,1.3-0.2c0.6,0,1.2,0,1.8,0.1c0.6,0.1,1.2,0.2,1.8,0.3c0.6,0.1,1.2,0.2,1.7,0.3c0.6,0.1,1.2,0.1,1.8,0.1
	c0.1,0,0.3,0,0.7,0c0.4,0,0.6,0,0.7,0c-0.2-0.4-0.5-0.7-1-0.8c-0.5-0.1-1-0.2-1.5-0.3c-0.5,0-1.1-0.1-1.6-0.1c-0.5,0-1,0.1-1.3-0.1
	l-2.3-1.3h-0.2c-0.7,0-1.3-0.2-1.9,0c-0.6,0.2-1.2,0.1-1.9,0.1c-0.7,0-1.3-0.2-1.8-0.4c-0.5-0.2-1.1-0.5-1.6-0.8
	c-0.5-0.3-1.1-0.6-1.6-0.8c-0.5-0.2-0.7-0.4-1.7-0.4v3.6c0,0,0.7,0,1-0.1c0.2-0.1,0.4-0.1,0.6-0.2c0.2-0.1,0.4-0.2,0.5-0.3
	c0.2-0.1,0.2-0.2,0.5-0.4c0.1,0,0.4-0.1,0.4-0.1v1.7l1.2-0.4c0,0.1,0.1,0.2,0.1,0.3c0,0.1,0.1,0.2,0.1,0.3c0,1-0.3,1.7-0.8,2.3
	c-0.6,0.6-1.2,1.2-2,1.8c-1-0.4-1.9-0.6-2.8-0.8c-0.9-0.1-1.9-0.3-2.9-0.4v-4.7c0,0-0.6,0.2-1,0.3s-0.8,0.4-1.2,0.6
	c-0.4,0.2-0.9,0.5-1.2,0.7c-0.3,0.2-0.6,0.5-0.6,0.7v4.2c1,0,1.4-0.1,1.8-0.2c0.4-0.1,0.8-0.2,1.1-0.4c0.3-0.1,0.5-0.2,0.7-0.4
	c0.2-0.1,0.5-0.2,0.7-0.2c0,0,0.1,0,0.1,0c0,0,0.1,0,0.1,0c0,0.1,0.1,0.2,0.2,0.4c0.1,0.2,0.2,0.5,0.3,0.8c0.1,0.3,0.2,0.5,0.2,0.8
	c0.1,0.3,0.1,0.4,0.1,0.6c0,0.4-0.1,0.8-0.2,1.2c-0.2,0.4-0.4,0.8-0.6,1.1c-0.3,0.3-0.6,0.6-0.9,0.8c-0.3,0.2-0.7,0.3-1.1,0.3
	c-0.1,0-0.2,0-0.4,0c-0.1,0-0.2,0-0.3,0c-0.5-0.1-1-0.2-1.8-0.3s-1.5-0.2-2.2-0.4c-0.7-0.2-1.4-0.4-2-0.8c-0.5-0.3-0.9-0.7-0.9-1.3
	v-7c0-0.1,0.2-0.2,0.5-0.5c0.3-0.3,0.7-0.6,1.1-1c0.4-0.4,0.9-0.8,1.4-1.3c0.5-0.5,1-1,1.4-1.5c0.4-0.5,0.8-1.1,1.1-1.6
	c0.3-0.5,0.4-1.1,0.4-1.6c0-0.6-0.2-1.2-0.7-1.7c-0.5-0.5-1-0.9-1.7-1.2c-0.6-0.3-1.3-0.6-2-0.9c-0.7-0.2-1.2-0.4-1.5-0.5l-0.8-5.5
	c-0.1-0.5-0.2-1-0.4-1.6c-0.2-0.6-0.4-1.2-0.7-1.7c-0.3-0.5-0.6-0.9-1.1-1.3c-0.4-0.3-1-0.5-1.6-0.5c-0.8,0-1.6,0.1-2.2,0.3
	c-0.6,0.2-1.3,0.5-1.9,0.9c-0.2,0.1-0.5,0.3-1,0.6c-0.5,0.3-1,0.6-1.5,0.9c-0.6,0.3-1.2,0.7-1.8,1.1c-0.6,0.4-1.2,0.7-1.8,1
	c-0.6,0.3-1.1,0.7-1.5,1c-0.5,0.3-0.8,0.7-1,0.7h-0.6c-0.3,0-0.6-0.1-1-0.1c-0.4,0-0.8-0.1-1.2-0.2c-0.4-0.1-0.5-0.3-0.8-0.5
	c-0.3-0.2-0.2-0.5-0.2-0.8v-1.1c0-0.4-0.1-0.5,0-0.6c0.1,0,0.4,0,0.9,0c0,0,0-0.1,0-0.3c0-0.2,0.1-0.3,0.1-0.5
	c0.1-0.2,0.1-0.4,0.1-0.5c0-0.2,0-0.3,0-0.3c-0.1-0.2-0.3-0.4-0.5-0.5c-0.2-0.1-0.4-0.2-0.5-0.3c-0.2-0.1-0.3-0.2-0.4-0.4
	c-0.1-0.2-0.2-0.4-0.2-0.8c0-0.2,0-0.5,0.1-0.7c0.1-0.2,0.2-0.5,0.4-0.7c0.2-0.2,0.1-0.4,0.4-0.5c0.2-0.1,0.5-0.2,0.5-0.2v0.5
	c0,0.3,0.3,0.6,0.3,0.9c0.1,0.3,0.4,0.4,0.7,0.4c0.2,0,0.5-0.1,0.7-0.3c0.2-0.2,0.4-0.4,0.6-0.7c0.1-0.3,0.3-0.7,0.4-1
	c0.1-0.3,0.2,0.2,0.2-0.8h-7.4c-0.1,0-0.3-0.1-0.5-0.3c-0.2-0.2-0.4-0.2-0.6-0.4c-0.2-0.2-0.4-0.3-0.5-0.5c-0.2-0.2-0.2-0.4-0.2-0.6
	c0-0.8,0.2-1.4,0.6-1.9c0.4-0.5,1-0.8,1.6-1.1c0.6-0.3,1.2-0.5,1.9-0.6c0.7-0.1,1.2-0.3,1.7-0.5c0.2-0.1,0.7-0.3,1.3-0.6
	c0.6-0.3,1.3-0.6,2-0.9c0.7-0.3,1.4-0.6,2-1c0.6-0.3,1.1-0.6,1.3-0.6h8.2c0.9,0,1.6,0.2,2.3,0.6c0.7,0.4,1.3,0.9,1.9,1.5
	c0.5,0.6,1.1,1.3,1.5,2c0.5,0.7,0.9,1.4,1.4,2c0.5,0.6,0.9,1.1,1.4,1.5c0.4,0.4,0.9,0.6,1.5,0.6c0.2,0,0.4-0.1,0.5-0.2
	c0.1-0.2,0.3-0.2,0.5-0.2c0.3,0,0.6,0.1,0.9,0.2c0.3,0.1,0.6,0.3,0.9,0.4c0.3,0.1,0.6,0.3,0.9,0.4c0.3,0.1,0.6,0.2,0.9,0.2
	c0.8,0,1.7,0,2.5-0.1c0.8-0.1,1.6-0.2,2.5-0.3c0.8-0.1,1.7-0.2,2.5-0.3c0.8-0.1,1.6-0.1,2.5-0.1c1.5,0,3,0.1,4.4,0.2
	c1.4,0.2,2.9,0.5,4.4,1c1,0.3,2,0.7,3,1.2c1,0.4,2.1,0.9,3.1,1.3c1,0.4,2.1,0.8,3.2,1.1c1.1,0.3,2.2,0.4,3.3,0.4c0.1,0,0.4,0,0.8,0
	c0.4,0,0.6,0,0.8,0c2.6-0.6,5.2-1.1,7.8-1.6c2.6-0.5,5.2-1,7.7-1.4c2.6-0.4,5.2-0.7,7.8-0.9c2.6-0.2,5.2-0.3,7.9-0.3h2
	c1.1,0,2.2,0,3.3,0.1c1.1,0.1,2.2,0.4,3,0.6l22,4.4h7.1c-0.5,0-1.1,0.6-1.9,0.8C897.6,135,896.8,134.9,896,135z"/>
<g>
	<path class="st0" d="M779.1,349.6c-0.2,0-0.2,0.1-0.2,0.4v0c0,0,0,0,0,0c-0.2,0-0.3,0.1-0.3,0.3c0,0.2,0.1,0.4,0.3,0.4
		c0.2,0,0.2-0.1,0.2-0.4v0c0,0,0,0,0,0c0.2,0,0.3-0.1,0.3-0.3C779.4,349.7,779.3,349.6,779.1,349.6z"/>
	<path class="st0" d="M780,349.1c-0.2,0.1-0.4,0.3-0.5,0.5h0.2c0.2,0,0.5-0.1,0.7-0.2c0.2-0.1,0.4-0.3,0.5-0.5h-0.2
		C780.4,349,780.2,349,780,349.1z"/>
	<path class="st0" d="M781.8,347.6c-0.2,0-0.2,0.1-0.2,0.3v0c0,0,0,0-0.1,0c-0.2,0-0.3,0.1-0.3,0.3v0c0,0,0,0-0.1,0
		c-0.2,0-0.3,0.1-0.3,0.4c0,0.2,0.1,0.3,0.3,0.3c0.2,0,0.3-0.1,0.3-0.3v0c0,0,0,0,0.1,0c0.2,0,0.3-0.1,0.3-0.4v0c0,0,0,0,0,0
		c0.2,0,0.3-0.1,0.3-0.3C782.1,347.7,782,347.6,781.8,347.6z"/>
	<path class="st0" d="M795.8,344c-0.3,0.4-0.5,0.6-0.8,0.9c0.1,0.3,0.3,0.6,0.5,0.6c0.2,0.1,0.4,0.1,0.7,0.1c0.3,0,0.6-0.1,0.8-0.3
		c0.2-0.2,0.5-0.4,0.6-0.7s0.3-0.6,0.5-0.9c0.1-0.3,0.2-0.7,0.3-0.7h-2.1C796.3,343,796.1,343.7,795.8,344z"/>
	<path class="st0" d="M776.3,259c-42.3,0-76.7,34.3-76.7,76.7c0,42.3,34.3,76.7,76.7,76.7c42.3,0,76.7-34.3,76.7-76.7
		C853,293.3,818.7,259,776.3,259z M833.8,304.5c-0.3,0.1-0.6,0.2-0.9,0.2c-0.3,0-0.7,0.1-1,0.1c-0.2,0-0.5,0-0.7,0
		c-0.2,0-0.4,0-0.6,0c-1.2,0.2-2.3,0.5-3.1,0.8c-0.9,0.3-1.6,0.6-2.2,1c-0.6,0.4-1.1,0.8-1.5,1.3c-0.4,0.5-0.8,1.1-1.1,1.8
		c-0.3,0.7-0.6,1.5-0.9,2.4c-0.3,0.9-0.6,1.9-1,3c-0.2,0.7-0.5,1.4-0.7,2.1c-0.2,0.6-0.5,1.3-0.8,1.9c-0.3,0.6-0.5,1.2-0.9,1.9
		c-0.3,0.6-0.7,1.3-1.1,1.9c-0.5,0.9-1,1.7-1.6,2.5c-0.6,0.8-1.2,1.5-1.8,2.2c-0.6,0.7-1.2,1.4-1.9,2.1c-0.6,0.7-1.3,1.5-1.9,2.3
		c-0.4,0.5-0.6,1.1-0.8,1.6c-0.2,0.5-0.4,1-0.6,1.5c-0.2,0.5-0.5,0.9-0.8,1.3c-0.3,0.4-0.8,0.7-1.5,1c-0.2,0.1-0.4,0.2-0.8,0.3
		c-0.4,0.1-0.8,0.3-1.2,0.4c-0.4,0.1-0.8,0.3-1.2,0.4c-0.4,0.1-0.7,0.2-0.8,0.2c0.2,0.6,0.2,1,0.1,1.2s-0.3,0.4-0.5,0.6
		c-0.2,0.1-0.5,0.2-0.7,0.4c-0.3,0.1-0.4,0.3-0.5,0.6l-1.4,4.1c-0.1,0.4-0.3,0.7-0.6,0.9c-0.3,0.2-0.7,0.4-1.1,0.5
		c-0.4,0.1-0.8,0.1-1.2,0.1c-0.4,0-0.8-0.1-1.1-0.1h-0.5c-0.3,0-0.5,0.1-0.7,0c-0.2-0.1-0.2-0.2-0.2-0.5c0-0.1,0-0.2,0.1-0.2
		c0-0.1,0.1-0.1,0.1-0.2c0-0.1,0.1-0.1,0.1-0.2c0-0.1,0.1-0.1,0.1-0.2c0,0,0,0,0-0.1c0,0,0-0.1,0-0.1c-0.7,0.3-1.4,0.6-2.1,1
		c-0.7,0.4-1.3,0.8-2,1.2c-0.7,0.4-1.3,0.9-2,1.3s-1.3,0.8-2,1.2c-0.1,0.1-0.3,0.2-0.5,0.3c-0.2,0.1-0.5,0.2-0.7,0.3
		c-0.2,0.1-0.4,0.3-0.6,0.5c-0.2,0.2-0.3,0.4-0.3,0.6c0,0,0,0.1,0,0.2c0,0.1,0,0.1,0,0.1c0.3,0.3,0.7,0.6,1.1,1
		c0.4,0.3,0.8,0.7,1.2,1c0.4,0.3,0.8,0.7,1.2,1c0.4,0.3,0.8,0.6,1.3,0.8c0.3,0.2,0.7,0.3,1.1,0.4c0.4,0.1,0.8,0.2,1.2,0.3
		c0.4,0.1,0.8,0.2,1.1,0.4c0.4,0.1,0.7,0.3,1,0.5c0.3,0.3,0.6,0.5,0.8,0.8c0.2,0.3,0.4,0.6,0.7,0.9c0.2,0.3,0.4,0.6,0.7,0.9
		c0.2,0.3,0.5,0.5,0.9,0.8c0.2,0.1,0.6,0.3,1,0.4c0.4,0.1,0.8,0.2,1.2,0.4c0.4,0.2,0.8,0.4,1.1,0.6c0.3,0.3,0.5,0.6,0.5,1
		c0,0,0,0.1,0,0.2c0,0.1,0,0.1,0,0.1l-3.4,0.7c-0.3,0-0.5,0.1-0.7,0.2c-0.2,0.1-0.4,0.2-0.7,0.2c0,0-0.1,0-0.2,0s-0.1,0-0.2,0
		c-0.1-0.1-0.3-0.2-0.7-0.4c-0.3-0.2-0.7-0.4-1-0.6c-0.4-0.2-0.7-0.4-1-0.6c-0.3-0.2-0.5-0.4-0.6-0.5c0,0-0.1,0-0.1-0.1
		c-0.1-0.1-0.1-0.2-0.2-0.3c-0.1-0.1-0.1-0.2-0.2-0.3c-0.1-0.1-0.1-0.2-0.2-0.3l-1.4-2.7c-0.1,0-0.4-0.1-0.7-0.3
		c-0.3-0.1-0.7-0.3-1.1-0.4c-0.4-0.2-0.8-0.4-1.3-0.6c-0.5-0.2-0.9-0.4-1.3-0.6c-0.4-0.2-0.8-0.4-1.1-0.5c-0.3-0.2-0.5-0.3-0.7-0.4
		c-0.5-0.3-1.1-0.6-1.7-1c-0.6-0.4-1.1-0.8-1.6-1.3c-0.5-0.5-0.9-1-1.2-1.6c-0.3-0.6-0.5-1.2-0.6-1.9c0,0-0.2,0.1-0.3,0.1
		c-0.2,0.1-0.3,0.1-0.4,0.2c-0.1,0.1-0.2,0.2-0.5,0.4c-0.3,0.2-0.6,0.4-1,0.7c-0.4,0.3-0.8,0.6-1.3,0.9c-0.5,0.3-0.9,0.6-1.3,0.8
		c-0.4,0.2-0.8,0.5-1.1,0.6c-0.3,0.2-0.5,0.3-0.6,0.3c-1.4,0.8-2.6,1.5-3.6,2.1c-1,0.6-2,1.3-2.7,2.1c-0.8,0.8-1.7,1.6-2.2,2.7
		c-0.5,1-0.4,2.4-1.4,4v0.1c0,0.1,0,0.2,0,0.2c0,0.1,0,0.2,0,0.3v0.3c0,1.1,0.4,2,0.7,2.7c0.3,0.7,0.8,1.2,1.3,1.6
		c0.5,0.4,1,0.7,1.6,0.8c0.5,0.2,1.1,0.4,1.5,0.6c0.5,0.2,0.9,0.3,1.2,0.6s0.5,1.2,0.5,1.2h-8c0,0,0-0.2-0.1-0.2
		c-0.1-0.1-0.1-0.1-0.2-0.1c-0.1,0-0.2,0-0.3-0.1c-0.1,0-0.2-0.1-0.4-0.2c-0.4-0.2-0.6-0.5-0.8-0.9c-0.1-0.4-0.2-0.8-0.3-1.3
		c0-0.5,0.1-0.9,0.1-1.4c0-0.5,0.2-0.9,0.2-1.2v-0.9c0-0.2,0-0.6,0.2-1.1s0.2-1,0.3-1.6c0.2-0.6,0.3-1.2,0.5-1.9
		c0.2-0.7,0.3-1.3,0.5-1.9c0.2-0.6,0.3-1.1,0.4-1.6c0.1-0.5,0.2-0.8,0.3-1.1c0.1-0.5,0.2-0.9,0.4-1.2c0.1-0.3,0.3-0.7,0.6-1.1
		c1.1-0.4,2-0.9,2.7-1.5c0.7-0.6,1.4-1.3,2-2c0.6-0.7,1.2-1.4,1.7-2.1c0.6-0.7,1.3-1.3,2.1-1.9c0.2-0.1,0.5-0.3,0.9-0.4
		c0.4-0.1,0.8-0.3,1.2-0.5c0.5-0.2,0.9-0.4,1.4-0.6c0.5-0.2,0.9-0.4,1.3-0.7c0.4-0.2,0.7-0.5,1-0.8c0.2-0.3,0.4-0.6,0.4-0.9
		c0-0.3,0-0.5,0-0.8c0-0.2-0.1-0.5-0.4-0.7c-0.1,0-0.2-0.1-0.5-0.2c-0.2-0.1-0.5-0.2-0.7-0.3c-0.2-0.1-0.5-0.2-0.7-0.3
		c-0.2-0.1-0.4-0.2-0.5-0.2c-0.3-0.1-0.7-0.4-1.2-0.7s-1-0.8-1.6-1.1c-0.5-0.4-1.1-0.6-1.5-0.9c-0.5-0.3-0.8-0.3-1-0.3h-4.8
		c-3.6,0-7.2-0.1-10.7,0.1s-7,0.1-10.7,0.1c-2.7,0-5.2-0.1-7.8-0.2c-2.5-0.1-5-0.4-7.5-0.8c-2.5-0.4-4.9-1-7.2-1.8
		c-2.4-0.8-4.8-1.8-7.1-3c-0.2-0.1-0.5-0.3-0.9-0.4c-0.3-0.2-0.7-0.4-1-0.6c-0.3-0.2-0.6-0.5-0.8-0.8c-0.2-0.3-0.3-0.6-0.3-1
		c0.4,0,0.8,0.1,1.3,0.2c0.5,0.2,1,0.3,1.4,0.6c0.5,0.2,0.9,0.4,1.3,0.6c0.4,0.2,0.7,0.3,0.9,0.4c0.9,0.3,1.8,0.7,2.8,1
		c1,0.3,2,0.6,3,0.9c1,0.3,2.1,0.4,3.1,0.6c1,0.1,2,0.2,2.9,0.2h15.3c0.1,0,0.3,0,0.7-0.1c0.4-0.1,0.9-0.1,1.5-0.2
		c0.6-0.1,1.3-0.2,2-0.3c0.7-0.1,1.5-0.2,2.2-0.4c0.7-0.1,1.4-0.2,2.1-0.4c0.7-0.1,1.2-0.2,1.6-0.3c1.3-0.2,2.7-0.5,4.2-0.8
		c1.5-0.3,3-0.6,4.4-1s3-0.8,4.4-1.3c1.4-0.5,2.8-1,4-1.7c0.8-0.4,1.5-0.7,2.3-1.1c0.8-0.4,1.5-0.7,2.3-1c0.8-0.3,1.6-0.6,2.4-0.8
		c0.8-0.2,1.7-0.4,2.5-0.5c0.1,0,0.3,0,0.6-0.1c0.3,0,0.7,0,1.1-0.1c0.4,0,0.7-0.1,1.1-0.1c0.3,0,0.5-0.1,0.6-0.1
		c0.2,0,0.6-0.1,1.1-0.2c0.6-0.1,1.2-0.3,2-0.4c0.8-0.2,1.6-0.3,2.5-0.5s1.7-0.4,2.4-0.5s1.4-0.6,2-0.7s1-0.4,1.1-0.4h0.5
		c0.4,0,0.7,0,1.1,0c0.4,0,0.8,0,1.2,0h1.1c1.6,0,3.2,0.3,4.8,0.4c1.5,0.1,3.1,0.3,4.7,0.3c1.1,0,2.1-0.2,3-0.8
		c1-0.5,1.9-1.2,2.7-2.1c0.8-0.9,1.6-1.9,2.3-3c0.7-1.1,1.4-2.3,2-3.4c0.6-1.1,1.1-2.3,1.5-3.4c0.4-1.1,0.8-2.1,1.1-2.9
		c0.3-0.7,0.5-1.4,0.7-2.1c0.2-0.7,0.4-1.3,0.6-1.9c0.2-0.6,0.4-1.1,0.7-1.6c0.3-0.5,0.6-0.9,1.1-1.2c0.4-0.3,1-0.8,1.6-1
		c0.6-0.2,1.4-0.5,2.3-0.5h0.4c0.2,0,0.4,0,0.6,0c0.2,0,0.4,0,0.6,0h0.4c0.5,1,1.1,0.5,1.8,0.8c0.7,0.2,1.4,0.6,2.1,0.9
		s1.3,0.7,1.8,1.1c0.5,0.4,0.8,0.8,0.8,1.3c0,0.4-0.1,0.7-0.3,0.9C834.3,304.2,834.1,304.4,833.8,304.5z"/>
</g>
</svg>
