<svg height="256" viewBox="0 0 256 256" width="256" xmlns="http://www.w3.org/2000/svg"><path d="m132.8 151.7c-.2 0-.4.2-.4.6h-.1c-.3 0-.4.1-.4.4s.1.6.4.6.5-.2.5-.6c.4 0 .6-.1.6-.4a.5.5 0 0 0 -.6-.6z"/><path d="m134.3 150.9a1.8 1.8 0 0 0 -.9.8h.3a2.1 2.1 0 0 0 1.1-.4 2.2 2.2 0 0 0 .9-.7h-.3a2.3 2.3 0 0 0 -1.1.3z"/><path d="m137.3 148.3c-.3 0-.4.2-.4.6h-.1c-.3 0-.4.1-.4.5h-.2c-.3 0-.4.2-.4.6s.1.6.4.6.5-.2.5-.6h.1c.3 0 .4-.2.4-.6h.1c.4 0 .5-.2.5-.5s-.1-.6-.5-.6z"/><path d="m160.4 142.4a8.9 8.9 0 0 1 -1.3 1.4 2.6 2.6 0 0 0 .8 1.1l1.2.2a2.4 2.4 0 0 0 1.4-.5 5.8 5.8 0 0 0 1-1.2 10.9 10.9 0 0 0 .8-1.5c.2-.5.4-1.1.5-1.1h-3.4c-.2 0-.5 1-1 1.6z"/><path d="m128.3 2.3a126.4 126.4 0 1 0 126.4 126.4 126.4 126.4 0 0 0 -126.4-126.4zm94.8 75-1.6.4h-3.7a37.5 37.5 0 0 0 -5.1 1.3 14.2 14.2 0 0 0 -3.7 1.5 10.2 10.2 0 0 0 -2.4 2.2 11.9 11.9 0 0 0 -1.8 2.9 40.4 40.4 0 0 0 -1.5 3.9c-.4 1.5-1 3.1-1.6 5l-1.2 3.5-1.2 3.2-1.5 3.1-1.7 3.2a41.5 41.5 0 0 1 -2.7 4.1l-2.9 3.6-3.1 3.6a30 30 0 0 0 -3.1 3.8 9.4 9.4 0 0 0 -1.4 2.6l-.9 2.6a7 7 0 0 1 -1.4 2.1 4.8 4.8 0 0 1 -2.4 1.6l-1.4.6-2 .7-2 .6-1.3.4a2.8 2.8 0 0 1 .1 2 2.4 2.4 0 0 1 -.8.9l-1.2.6a1.3 1.3 0 0 0 -.9.9l-2.3 6.7a2.3 2.3 0 0 1 -1 1.5 5.1 5.1 0 0 1 -1.8.9 12.3 12.3 0 0 1 -2 .2l-1.8-.2h-.9c-.4 0-.8.2-1.1.1s-.4-.3-.4-.8 0-.3.1-.4l.3-.3.2-.3c.1-.1.1-.2.1-.4v-.2a28.1 28.1 0 0 0 -3.5 1.7l-3.3 2-3.3 2.2a22.7 22.7 0 0 1 -3.4 1.9l-.8.5-1.2.6-1 .7a2.1 2.1 0 0 0 -.4 1.1v.5l1.7 1.7 2 1.7 2 1.6 2.1 1.2 1.8.7 1.9.5 1.9.7a7 7 0 0 1 1.7.9 5.8 5.8 0 0 1 1.3 1.4l1.1 1.5a13.4 13.4 0 0 0 1.1 1.4 6.4 6.4 0 0 0 1.5 1.3l1.6.6 2.1.6a7.7 7.7 0 0 1 1.8 1 2.1 2.1 0 0 1 .7 1.7v.5l-5.6 1.2a2.9 2.9 0 0 0 -1 .3 2.1 2.1 0 0 1 -1.2.3h-.6c-.1-.2-.5-.4-1.1-.7l-1.7-1-1.7-1-1-.7-.2-.2-.3-.5-.4-.6-.2-.4-2.3-4.5-1.1-.4-1.8-.8-2.1-.9-2.2-1-1.7-.8-1.1-.6a19.1 19.1 0 0 1 -2.8-1.5 27.5 27.5 0 0 1 -2.6-2.2 12.1 12.1 0 0 1 -2-2.6 7.5 7.5 0 0 1 -1-3.2l-.6.3-.6.3-.9.6a8.3 8.3 0 0 1 -1.7 1.2l-2.1 1.4-2.1 1.4-1.7 1-1 .6-5.9 3.5a19.7 19.7 0 0 0 -4.5 3.4 15.4 15.4 0 0 0 -3.6 4.4c-.9 1.7-.7 3.9-2.4 6.6v1.5a8.5 8.5 0 0 0 1.2 4.4 6.9 6.9 0 0 0 2.1 2.6 8.2 8.2 0 0 0 2.6 1.4 14.5 14.5 0 0 1 2.5 1 5.3 5.3 0 0 1 2 .9 6 6 0 0 1 .8 2h-13.2c-.1 0-.1-.2-.2-.4l-.4-.2h-.5l-.6-.3a2.8 2.8 0 0 1 -1.2-1.6 6.5 6.5 0 0 1 -.5-2.1 9 9 0 0 1 .2-2.3c0-.8.3-1.5.3-2.1v-1.4a7.3 7.3 0 0 1 .2-1.8l.6-2.6c.3-1 .5-2.1.8-3.2s.5-2.1.8-3.1.5-1.9.6-2.7l.5-1.7c.2-.8.4-1.4.6-2a11.8 11.8 0 0 1 1-1.9 16 16 0 0 0 4.5-2.5 32.7 32.7 0 0 0 3.2-3.3l2.9-3.4a14.5 14.5 0 0 1 3.4-3.1l1.4-.7 2.1-.8 2.3-.9 2.1-1.2a5.3 5.3 0 0 0 1.6-1.3 2.2 2.2 0 0 0 .6-1.5v-1.3a1.8 1.8 0 0 0 -.6-1.3l-.8-.2-1.2-.6-1.2-.5-.7-.3a9.2 9.2 0 0 1 -2.1-1.3l-2.6-1.8a25.6 25.6 0 0 0 -2.5-1.6 3 3 0 0 0 -1.7-.5h-7.9c-5.9 0-11.8-.1-17.5.1s-11.7.2-17.6.2c-4.4 0-8.6-.2-12.8-.4a98.4 98.4 0 0 1 -12.3-1.4 68.9 68.9 0 0 1 -11.9-2.9 63.2 63.2 0 0 1 -11.8-5l-1.4-.7-1.6-1a8 8 0 0 1 -1.3-1.3 3 3 0 0 1 -.5-1.6 9.5 9.5 0 0 1 2.1.4l2.4 1 2.2.9 1.5.7 4.6 1.6 5 1.4a30.6 30.6 0 0 0 5.1 1 27.7 27.7 0 0 0 4.9.4h26.3l2.6-.4 3.3-.5 3.6-.6 3.4-.6 2.7-.6 6.9-1.3 7.3-1.6 7.2-2.1a65.4 65.4 0 0 0 6.6-2.8l3.8-1.8 3.7-1.6 4-1.3a27.1 27.1 0 0 1 4.1-.9h2.8l1.8-.2 1-.2 1.9-.3 3.3-.7 4.1-.9 4-.9c1.2-.3 2.3-.9 3.3-1.1s1.5-.8 1.9-.8h6.5a68.2 68.2 0 0 1 7.9.8c2.5.2 5.1.5 7.8.5a10.1 10.1 0 0 0 5-1.3 16.2 16.2 0 0 0 4.4-3.5 32.3 32.3 0 0 0 3.9-4.9 44.8 44.8 0 0 0 3.2-5.6 55.3 55.3 0 0 0 2.6-5.6c.7-1.8 1.3-3.4 1.7-4.7s.8-2.4 1.2-3.5a28.1 28.1 0 0 1 1-3.1 10.3 10.3 0 0 1 1.2-2.6 6.5 6.5 0 0 1 1.7-2 9.5 9.5 0 0 1 2.6-1.6 13.4 13.4 0 0 1 3.8-.8h3.1c.7 1.7 1.7 1 2.9 1.3a37.3 37.3 0 0 1 3.5 1.6 10.9 10.9 0 0 1 3 1.8 2.7 2.7 0 0 1 1.2 2.1 2 2 0 0 1 -.4 1.4 3.1 3.1 0 0 1 -1.1.4z"/></svg>